<mxfile host="app.diagrams.net" modified="2024-07-17T12:49:56.561Z" agent="Mozilla/5.0 (X11; Linux x86_64) AppleWebKit/537.36 (KHTML, like Gecko) Chrome/126.0.0.0 Safari/537.36" etag="e_-88j94f_r_eZvM0eu5" version="24.7.1" type="github">
  <diagram name="PÃ¡gina-1" id="fXSYrHH0r40WF7RT9Ph7">
    <mxGraphModel dx="4" dy="2886" grid="1" gridSize="10" guides="1" tooltips="1" connect="1" arrows="1" fold="1" page="0" pageScale="1" pageWidth="827" pageHeight="1169" math="0" shadow="0">
      <root>
        <mxCell id="0" />
        <mxCell id="1" parent="0" />
        <mxCell id="FPdHVrewZq1G3l7FEMrT-16" value="&lt;font style=&quot;font-size: 24px;&quot;&gt;&lt;b&gt;Modelagem por tuplas&lt;/b&gt;&lt;/font&gt;" style="text;html=1;align=center;verticalAlign=middle;whiteSpace=wrap;rounded=0;" parent="1" vertex="1">
          <mxGeometry x="910" y="-2030" width="290" height="30" as="geometry" />
        </mxCell>
        <mxCell id="pfpjBua40EjQSp1BOsVJ-1" value="&lt;b&gt;ANIMAL_HOSTIL&amp;nbsp;&lt;/b&gt;{&lt;u&gt;id_animal&lt;/u&gt;, &lt;u&gt;habitat&lt;/u&gt;&lt;b&gt;&lt;u&gt;,&amp;nbsp;&lt;/u&gt;&lt;/b&gt;especie, velocidade, vida_max, stamina_max, textura}" style="text;html=1;align=center;verticalAlign=middle;whiteSpace=wrap;rounded=0;" parent="1" vertex="1">
          <mxGeometry x="520" y="-1790" width="470" height="30" as="geometry" />
        </mxCell>
        <mxCell id="pfpjBua40EjQSp1BOsVJ-2" value="&lt;b&gt;ANIMAL_AMIGAVEL&amp;nbsp;&lt;/b&gt;{&lt;u&gt;id_animal&lt;/u&gt;, &lt;u&gt;habitat&lt;/u&gt;&lt;u style=&quot;font-weight: bold;&quot;&gt;,&amp;nbsp;&lt;/u&gt;especie,&amp;nbsp;velocidade, vida_max, stamina_max, textura, jogador_dono}" style="text;html=1;align=center;verticalAlign=middle;whiteSpace=wrap;rounded=0;" parent="1" vertex="1">
          <mxGeometry x="520" y="-1710" width="560" height="30" as="geometry" />
        </mxCell>
        <mxCell id="pfpjBua40EjQSp1BOsVJ-3" value="&lt;b&gt;ATAQUE&lt;/b&gt;&amp;nbsp;{&lt;u&gt;id_ataque&lt;/u&gt;, descricao, dano}" style="text;align=center;verticalAlign=middle;whiteSpace=wrap;rounded=0;html=1;" parent="1" vertex="1">
          <mxGeometry x="520" y="-1950" width="200" height="30" as="geometry" />
        </mxCell>
        <mxCell id="pfpjBua40EjQSp1BOsVJ-4" value="&lt;b&gt;ANIMAL_HOSTIL_POSSUI_ATAQUE&lt;/b&gt;&amp;nbsp;{&lt;u&gt;id_ataque, id_animal&lt;/u&gt;}" style="text;align=center;verticalAlign=middle;whiteSpace=wrap;rounded=0;html=1;" parent="1" vertex="1">
          <mxGeometry x="520" y="-1870" width="330" height="30" as="geometry" />
        </mxCell>
        <mxCell id="pfpjBua40EjQSp1BOsVJ-9" value="&lt;b&gt;INSTANCIA_ANIMAL&lt;/b&gt;&amp;nbsp;{&lt;u&gt;id_animal&lt;/u&gt;&lt;u style=&quot;font-weight: bold;&quot;&gt;, &lt;/u&gt;&lt;u&gt;id_inst_animal&lt;/u&gt;&lt;u style=&quot;font-weight: bold;&quot;&gt;,&lt;/u&gt; vida_atual, stamina_atual, &lt;u&gt;sala&lt;/u&gt;}" style="text;align=center;verticalAlign=middle;whiteSpace=wrap;rounded=0;html=1;" parent="1" vertex="1">
          <mxGeometry x="520" y="-1550" width="420" height="30" as="geometry" />
        </mxCell>
        <mxCell id="pfpjBua40EjQSp1BOsVJ-10" value="&lt;b&gt;ANIMAL_TIPO&amp;nbsp;&lt;/b&gt;{&lt;u&gt;id_animal&lt;/u&gt;, tipo}" style="text;html=1;align=center;verticalAlign=middle;whiteSpace=wrap;rounded=0;" parent="1" vertex="1">
          <mxGeometry x="520" y="-1630" width="180" height="30" as="geometry" />
        </mxCell>
        <mxCell id="pfpjBua40EjQSp1BOsVJ-12" value="&lt;b&gt;ANIMAL_HOSTIL_ATACA_JOGADOR&lt;/b&gt;&amp;nbsp;{&lt;u&gt;id_animal&lt;/u&gt;&lt;u style=&quot;font-weight: bold;&quot;&gt;, &lt;/u&gt;&lt;u&gt;id_jogador&lt;/u&gt;}" style="text;align=center;verticalAlign=middle;whiteSpace=wrap;rounded=0;html=1;" parent="1" vertex="1">
          <mxGeometry x="520" y="-1470" width="340" height="30" as="geometry" />
        </mxCell>
        <mxCell id="pfpjBua40EjQSp1BOsVJ-13" value="&lt;b&gt;JOGADOR_DOMA_ANIMAL_AMIGAVEL&lt;/b&gt;&amp;nbsp;{&lt;u&gt;id_animal&lt;/u&gt;&lt;u style=&quot;font-weight: bold;&quot;&gt;, &lt;/u&gt;&lt;u&gt;id_jogador&lt;/u&gt;}" style="text;align=center;verticalAlign=middle;whiteSpace=wrap;rounded=0;html=1;" parent="1" vertex="1">
          <mxGeometry x="517" y="-1390" width="360" height="30" as="geometry" />
        </mxCell>
        <mxCell id="pfpjBua40EjQSp1BOsVJ-14" value="&lt;b&gt;REGIAO&lt;/b&gt;{&lt;u&gt;id_regiao&lt;/u&gt;&lt;u style=&quot;font-weight: bold;&quot;&gt;,&lt;/u&gt;&lt;span style=&quot;font-weight: bold;&quot;&gt;&amp;nbsp;&lt;/span&gt;&lt;u&gt;mapa&lt;/u&gt;, nome, descricao}" style="text;align=center;verticalAlign=middle;whiteSpace=wrap;rounded=0;html=1;" parent="1" vertex="1">
          <mxGeometry x="1240" y="-1870" width="230" height="30" as="geometry" />
        </mxCell>
        <mxCell id="pfpjBua40EjQSp1BOsVJ-15" value="&lt;b&gt;MAPA&amp;nbsp;&lt;/b&gt;{&lt;u style=&quot;&quot;&gt;id_mapa&lt;b&gt;,&lt;/b&gt;&lt;/u&gt; nome}" style="text;align=center;verticalAlign=middle;whiteSpace=wrap;rounded=0;html=1;" parent="1" vertex="1">
          <mxGeometry x="1240" y="-1950" width="130" height="30" as="geometry" />
        </mxCell>
        <mxCell id="pfpjBua40EjQSp1BOsVJ-16" value="&lt;b&gt;SALA&amp;nbsp;&lt;/b&gt;{&lt;u style=&quot;&quot;&gt;id_mapa&lt;b&gt;,&lt;/b&gt;&lt;/u&gt;&amp;nbsp;&lt;u&gt;regiao&lt;/u&gt;, nome, descricao}" style="text;align=center;verticalAlign=middle;whiteSpace=wrap;rounded=0;html=1;" parent="1" vertex="1">
          <mxGeometry x="1240" y="-1710" width="220" height="30" as="geometry" />
        </mxCell>
        <mxCell id="pfpjBua40EjQSp1BOsVJ-17" value="&lt;b&gt;REGIAO_FAZ_FRONTEIRA_COM_REGIAO&lt;/b&gt;{&lt;u&gt;regiao_origem, regiao_destino&lt;/u&gt;}" style="text;align=center;verticalAlign=middle;whiteSpace=wrap;rounded=0;html=1;" parent="1" vertex="1">
          <mxGeometry x="1240" y="-1790" width="410" height="30" as="geometry" />
        </mxCell>
        <mxCell id="pfpjBua40EjQSp1BOsVJ-18" value="&lt;b&gt;SALA_CONECTA_COM_SALA&amp;nbsp;&lt;/b&gt;{&lt;u&gt;sala_origem, sala_destino&lt;/u&gt;}" style="text;align=center;verticalAlign=middle;whiteSpace=wrap;rounded=0;html=1;" parent="1" vertex="1">
          <mxGeometry x="1240" y="-1630" width="320" height="30" as="geometry" />
        </mxCell>
        <mxCell id="pfpjBua40EjQSp1BOsVJ-19" value="&lt;b&gt;INSTANCIA_ESTABELECIMENTO&lt;/b&gt;&amp;nbsp;{ &lt;u&gt;id_estab, id_inst_estab,&lt;/u&gt; dono}" style="text;align=center;verticalAlign=middle;whiteSpace=wrap;rounded=0;html=1;" parent="1" vertex="1">
          <mxGeometry x="1240" y="-1470" width="360" height="30" as="geometry" />
        </mxCell>
        <mxCell id="pfpjBua40EjQSp1BOsVJ-20" value="&lt;b&gt;ESTABELECIMENTO&lt;/b&gt;&amp;nbsp;{&lt;u&gt;id_estab&lt;/u&gt;, nome, descricao}" style="text;align=center;verticalAlign=middle;whiteSpace=wrap;rounded=0;html=1;" parent="1" vertex="1">
          <mxGeometry x="1240" y="-1550" width="270" height="30" as="geometry" />
        </mxCell>
        <mxCell id="pfpjBua40EjQSp1BOsVJ-23" value="&lt;b&gt;INSTANCIA_NPC&lt;/b&gt; {&lt;u&gt;id_npc, id_personagem&lt;/u&gt;, vida_atual, missao, gangue}" style="text;align=center;verticalAlign=middle;whiteSpace=wrap;rounded=0;html=1;" parent="1" vertex="1">
          <mxGeometry x="522" y="-1070" width="368" height="30" as="geometry" />
        </mxCell>
        <mxCell id="pfpjBua40EjQSp1BOsVJ-24" value="&lt;div style=&quot;text-align: center;&quot;&gt;&lt;span style=&quot;background-color: initial; text-align: start;&quot;&gt;&lt;b&gt;JOGADOR&lt;/b&gt;&lt;/span&gt;&lt;span style=&quot;background-color: initial; text-wrap: nowrap; color: rgba(0, 0, 0, 0); font-family: monospace; font-size: 0px; text-align: start;&quot;&gt;%3CmxGraphModel%3E%3Croot%3E%3CmxCell%20id%3D%220%22%2F%3E%3CmxCell%20id%3D%221%22%20parent%3D%220%22%2F%3E%3CmxCell%20id%3D%222%22%20value%3D%22%26lt%3Bb%26gt%3BLINHAS_FALA%26lt%3B%2Fb%26gt%3B%26amp%3Bnbsp%3B%7Bid_dialogo(PK)%2C%20id_linha_de_fala(PK)%2C%20texto_fala%7D%22%20style%3D%22text%3Balign%3Dcenter%3BverticalAlign%3Dmiddle%3BwhiteSpace%3Dwrap%3Brounded%3D0%3Bhtml%3D1%3B%22%20vertex%3D%221%22%20parent%3D%221%22%3E%3CmxGeometry%20x%3D%22-282%22%20y%3D%22-1280%22%20width%3D%22352%22%20height%3D%2230%22%20as%3D%22geometry%22%2F%3E%3C%2FmxCell%3E%3C%2Froot%3E%3C%2FmxGraphMo&lt;/span&gt;&lt;span style=&quot;background-color: initial;&quot;&gt;&amp;nbsp;{&lt;u&gt;id_personagem&lt;/u&gt;, nome, login, senha, velocidade, inventario, vida_max, classe, gangue, xp, dinheiro, vida_atual, stamina_max, stamina_atual, sala}&lt;/span&gt;&lt;/div&gt;" style="text;align=center;verticalAlign=middle;whiteSpace=wrap;rounded=0;html=1;" parent="1" vertex="1">
          <mxGeometry x="520" y="-1310" width="780" height="30" as="geometry" />
        </mxCell>
        <mxCell id="pfpjBua40EjQSp1BOsVJ-25" value="&lt;div style=&quot;text-align: center;&quot;&gt;&lt;span style=&quot;background-color: initial; text-align: start;&quot;&gt;&lt;b&gt;NPC&lt;/b&gt;&lt;/span&gt;&lt;span style=&quot;background-color: initial; text-wrap: nowrap; color: rgba(0, 0, 0, 0); font-family: monospace; font-size: 0px; text-align: start;&quot;&gt;%3CmxGraphModel%3E%3Croot%3E%3CmxCell%20id%3D%220%22%2F%3E%3CmxCell%20id%3D%221%22%20parent%3D%220%22%2F%3E%3CmxCell%20id%3D%222%22%20value%3D%22%26lt%3Bb%26gt%3BLINHAS_FALA%26lt%3B%2Fb%26gt%3B%26amp%3Bnbsp%3B%7Bid_dialogo(PK)%2C%20id_linha_de_fala(PK)%2C%20texto_fala%7D%22%20style%3D%22text%3Balign%3Dcenter%3BverticalAlign%3Dmiddle%3BwhiteSpace%3Dwrap%3Brounded%3D0%3Bhtml%3D1%3B%22%20vertex%3D%221%22%20parent%3D%221%22%3E%3CmxGeometry%20x%3D%22-282%22%20y%3D%22-1280%22%20width%3D%22352%22%20height%3D%2230%22%20as%3D%22geometry%22%2F%3E%3C%2FmxCell%3E%3C%2Froot%3E%3C%2FmxGraphMo&lt;/span&gt;&lt;span style=&quot;background-color: initial;&quot;&gt;&amp;nbsp;{&lt;u&gt;id_personagem&lt;/u&gt;, nome, velocidade, inventario, vida_max, classe, gangue&lt;u&gt;}&lt;/u&gt;&lt;/span&gt;&lt;/div&gt;" style="text;align=center;verticalAlign=middle;whiteSpace=wrap;rounded=0;html=1;" parent="1" vertex="1">
          <mxGeometry x="520" y="-1230" width="390" height="30" as="geometry" />
        </mxCell>
        <mxCell id="8w56cwOerDfgHP29hOcv-1" value="&lt;div style=&quot;text-align: center;&quot;&gt;&lt;span style=&quot;background-color: initial; text-align: start;&quot;&gt;&lt;b&gt;PERSONAGEM_TIPO&lt;/b&gt;&lt;/span&gt;&lt;span style=&quot;background-color: initial; text-wrap: nowrap; color: rgba(0, 0, 0, 0); font-family: monospace; font-size: 0px; text-align: start;&quot;&gt;%3CmxGraphModel%3E%3Croot%3E%3CmxCell%20id%3D%220%22%2F%3E%3CmxCell%20id%3D%221%22%20parent%3D%220%22%2F%3E%3CmxCell%20id%3D%222%22%20value%3D%22%26lt%3Bb%26gt%3BLINHAS_FALA%26lt%3B%2Fb%26gt%3B%26amp%3Bnbsp%3B%7Bid_dialogo(PK)%2C%20id_linha_de_fala(PK)%2C%20texto_fala%7D%22%20style%3D%22text%3Balign%3Dcenter%3BverticalAlign%3Dmiddle%3BwhiteSpace%3Dwrap%3Brounded%3D0%3Bhtml%3D1%3B%22%20vertex%3D%221%22%20parent%3D%221%22%3E%3CmxGeometry%20x%3D%22-282%22%20y%3D%22-1280%22%20width%3D%22352%22%20height%3D%2230%22%20as%3D%22geometry%22%2F%3E%3C%2FmxCell%3E%3C%2Froot%3E%3C%2FmxGraphMo&lt;/span&gt;&lt;span style=&quot;background-color: initial;&quot;&gt;&amp;nbsp;{&lt;u&gt;id_personagem&lt;/u&gt;, tipo}&lt;/span&gt;&lt;/div&gt;" style="text;align=center;verticalAlign=middle;whiteSpace=wrap;rounded=0;html=1;" parent="1" vertex="1">
          <mxGeometry x="522" y="-1150" width="240" height="30" as="geometry" />
        </mxCell>
        <mxCell id="8w56cwOerDfgHP29hOcv-2" value="&lt;b&gt;DIALOGO&lt;/b&gt;&amp;nbsp;{&lt;u&gt;id_dialogo&lt;/u&gt;, instancia_npc_falante, descricao}" style="text;align=center;verticalAlign=middle;whiteSpace=wrap;rounded=0;html=1;" parent="1" vertex="1">
          <mxGeometry x="522" y="-990" width="290" height="30" as="geometry" />
        </mxCell>
        <mxCell id="8w56cwOerDfgHP29hOcv-3" value="&lt;b&gt;LINHA_DE_FALA&lt;/b&gt;&amp;nbsp;{&lt;u&gt;id_dialogo, id_linha_de_fala&lt;/u&gt;, texto}" style="text;align=center;verticalAlign=middle;whiteSpace=wrap;rounded=0;html=1;" parent="1" vertex="1">
          <mxGeometry x="522" y="-910" width="290" height="30" as="geometry" />
        </mxCell>
        <mxCell id="8w56cwOerDfgHP29hOcv-4" value="&lt;b&gt;MISSAO&lt;/b&gt;&lt;span style=&quot;color: rgba(0, 0, 0, 0); font-family: monospace; font-size: 0px; text-align: start; text-wrap: nowrap;&quot;&gt;%3CmxGraphModel%3E%3Croot%3E%3CmxCell%20id%3D%220%22%2F%3E%3CmxCell%20id%3D%221%22%20parent%3D%220%22%2F%3E%3CmxCell%20id%3D%222%22%20value%3D%22%26lt%3Bb%26gt%3BLINHAS_FALA%26lt%3B%2Fb%26gt%3B%26amp%3Bnbsp%3B%7Bid_dialogo(PK)%2C%20id_linha_de_fala(PK)%2C%20texto_fala%7D%22%20style%3D%22text%3Balign%3Dcenter%3BverticalAlign%3Dmiddle%3BwhiteSpace%3Dwrap%3Brounded%3D0%3Bhtml%3D1%3B%22%20vertex%3D%221%22%20parent%3D%221%22%3E%3CmxGeometry%20x%3D%22-282%22%20y%3D%22-1280%22%20width%3D%22352%22%20height%3D%2230%22%20as%3D%22geometry%22%2F%3E%3C%2FmxCell%3E%3C%2Froot%3E%3C%2FmxGraphMo&lt;/span&gt;&amp;nbsp;{&lt;u&gt;id_missao&lt;/u&gt;, titulo, nivel_dificuldade, historia, regiao, status, jogador}" style="text;align=center;verticalAlign=middle;whiteSpace=wrap;rounded=0;html=1;" parent="1" vertex="1">
          <mxGeometry x="522" y="-830" width="390" height="30" as="geometry" />
        </mxCell>
        <mxCell id="8w56cwOerDfgHP29hOcv-5" value="&lt;div style=&quot;text-align: center;&quot;&gt;&lt;span style=&quot;background-color: initial; text-align: start;&quot;&gt;&lt;b&gt;HISTORIA&lt;/b&gt;&lt;/span&gt;&lt;span style=&quot;background-color: initial; text-wrap: nowrap; color: rgba(0, 0, 0, 0); font-family: monospace; font-size: 0px; text-align: start;&quot;&gt;%3CmxGraphModel%3E%3Croot%3E%3CmxCell%20id%3D%220%22%2F%3E%3CmxCell%20id%3D%221%22%20parent%3D%220%22%2F%3E%3CmxCell%20id%3D%222%22%20value%3D%22%26lt%3Bb%26gt%3BLINHAS_FALA%26lt%3B%2Fb%26gt%3B%26amp%3Bnbsp%3B%7Bid_dialogo(PK)%2C%20id_linha_de_fala(PK)%2C%20texto_fala%7D%22%20style%3D%22text%3Balign%3Dcenter%3BverticalAlign%3Dmiddle%3BwhiteSpace%3Dwrap%3Brounded%3D0%3Bhtml%3D1%3B%22%20vertex%3D%221%22%20parent%3D%221%22%3E%3CmxGeometry%20x%3D%22-282%22%20y%3D%22-1280%22%20width%3D%22352%22%20height%3D%2230%22%20as%3D%22geometry%22%2F%3E%3C%2FmxCell%3E%3C%2Froot%3E%3C%2FmxGraphMo&lt;/span&gt;&lt;span style=&quot;background-color: initial;&quot;&gt;&amp;nbsp;{&lt;u&gt;id_historia&lt;/u&gt;, titulo, enredo}&lt;/span&gt;&lt;/div&gt;" style="text;align=center;verticalAlign=middle;whiteSpace=wrap;rounded=0;html=1;" parent="1" vertex="1">
          <mxGeometry x="520" y="-510" width="200" height="30" as="geometry" />
        </mxCell>
        <mxCell id="8w56cwOerDfgHP29hOcv-6" value="&lt;div style=&quot;text-align: center;&quot;&gt;&lt;span style=&quot;background-color: initial; text-align: start;&quot;&gt;&lt;b&gt;OBJETIVO&lt;/b&gt;&lt;/span&gt;&lt;span style=&quot;background-color: initial; text-wrap: nowrap; color: rgba(0, 0, 0, 0); font-family: monospace; font-size: 0px; text-align: start;&quot;&gt;%3CmxGraphModel%3E%3Croot%3E%3CmxCell%20id%3D%220%22%2F%3E%3CmxCell%20id%3D%221%22%20parent%3D%220%22%2F%3E%3CmxCell%20id%3D%222%22%20value%3D%22%26lt%3Bb%26gt%3BLINHAS_FALA%26lt%3B%2Fb%26gt%3B%26amp%3Bnbsp%3B%7Bid_dialogo(PK)%2C%20id_linha_de_fala(PK)%2C%20texto_fala%7D%22%20style%3D%22text%3Balign%3Dcenter%3BverticalAlign%3Dmiddle%3BwhiteSpace%3Dwrap%3Brounded%3D0%3Bhtml%3D1%3B%22%20vertex%3D%221%22%20parent%3D%221%22%3E%3CmxGeometry%20x%3D%22-282%22%20y%3D%22-1280%22%20width%3D%22352%22%20height%3D%2230%22%20as%3D%22geometry%22%2F%3E%3C%2FmxCell%3E%3C%2Froot%3E%3C%2FmxGraphMo&lt;/span&gt;&lt;span style=&quot;background-color: initial;&quot;&gt;&amp;nbsp;{&lt;u&gt;id_objetivo&lt;/u&gt;, titulo,&amp;nbsp;retorno_xp, retorno_dinheiro, missao}&lt;/span&gt;&lt;/div&gt;" style="text;align=center;verticalAlign=middle;whiteSpace=wrap;rounded=0;html=1;" parent="1" vertex="1">
          <mxGeometry x="522" y="-590" width="350" height="30" as="geometry" />
        </mxCell>
        <mxCell id="8w56cwOerDfgHP29hOcv-7" value="&lt;b&gt;MISSAO_DEPENDE_DE_MISSAO&lt;/b&gt;&lt;span style=&quot;color: rgba(0, 0, 0, 0); font-family: monospace; font-size: 0px; text-align: start; text-wrap: nowrap;&quot;&gt;%3CmxGraphModel%3E%3Croot%3E%3CmxCell%20id%3D%220%22%2F%3E%3CmxCell%20id%3D%221%22%20parent%3D%220%22%2F%3E%3CmxCell%20id%3D%222%22%20value%3D%22%26lt%3Bb%26gt%3BLINHAS_FALA%26lt%3B%2Fb%26gt%3B%26amp%3Bnbsp%3B%7Bid_dialogo(PK)%2C%20id_linha_de_fala(PK)%2C%20texto_fala%7D%22%20style%3D%22text%3Balign%3Dcenter%3BverticalAlign%3Dmiddle%3BwhiteSpace%3Dwrap%3Brounded%3D0%3Bhtml%3D1%3B%22%20vertex%3D%221%22%20parent%3D%221%22%3E%3CmxGeometry%20x%3D%22-282%22%20y%3D%22-1280%22%20width%3D%22352%22%20height%3D%2230%22%20as%3D%22geometry%22%2F%3E%3C%2FmxCell%3E%3C%2Froot%3E%3C%2FmxGraphMo&lt;/span&gt;&amp;nbsp;{&lt;u&gt;missao_atual, missao_anterior&lt;/u&gt;}" style="text;align=center;verticalAlign=middle;whiteSpace=wrap;rounded=0;html=1;" parent="1" vertex="1">
          <mxGeometry x="522" y="-750" width="350" height="30" as="geometry" />
        </mxCell>
        <mxCell id="xpjfr03tc90BIfNNLr1k-1" value="&lt;b&gt;JOGADOR_CUMPRE_MISSAO&lt;/b&gt;&lt;span style=&quot;color: rgba(0, 0, 0, 0); font-family: monospace; font-size: 0px; text-align: start; text-wrap: nowrap;&quot;&gt;%3CmxGraphModel%3E%3Croot%3E%3CmxCell%20id%3D%220%22%2F%3E%3CmxCell%20id%3D%221%22%20parent%3D%220%22%2F%3E%3CmxCell%20id%3D%222%22%20value%3D%22%26lt%3Bb%26gt%3BLINHAS_FALA%26lt%3B%2Fb%26gt%3B%26amp%3Bnbsp%3B%7Bid_dialogo(PK)%2C%20id_linha_de_fala(PK)%2C%20texto_fala%7D%22%20style%3D%22text%3Balign%3Dcenter%3BverticalAlign%3Dmiddle%3BwhiteSpace%3Dwrap%3Brounded%3D0%3Bhtml%3D1%3B%22%20vertex%3D%221%22%20parent%3D%221%22%3E%3CmxGeometry%20x%3D%22-282%22%20y%3D%22-1280%22%20width%3D%22352%22%20height%3D%2230%22%20as%3D%22geometry%22%2F%3E%3C%2FmxCell%3E%3C%2Froot%3E%3C%2FmxGraphMo&lt;/span&gt;&amp;nbsp;{&lt;u&gt;jogador,&amp;nbsp;missao&lt;/u&gt;, data, retorno_total_xp, retorno_total_dinheiro}" style="text;align=center;verticalAlign=middle;whiteSpace=wrap;rounded=0;html=1;" parent="1" vertex="1">
          <mxGeometry x="520" y="-670" width="490" height="30" as="geometry" />
        </mxCell>
        <mxCell id="xpjfr03tc90BIfNNLr1k-2" value="&lt;div style=&quot;text-align: center;&quot;&gt;&lt;span style=&quot;background-color: initial; text-align: start;&quot;&gt;&lt;b&gt;GANGUE&lt;/b&gt;&lt;/span&gt;&lt;span style=&quot;background-color: initial; text-wrap: nowrap; color: rgba(0, 0, 0, 0); font-family: monospace; font-size: 0px; text-align: start;&quot;&gt;%3CmxGraphModel%3E%3Croot%3E%3CmxCell%20id%3D%220%22%2F%3E%3CmxCell%20id%3D%221%22%20parent%3D%220%22%2F%3E%3CmxCell%20id%3D%222%22%20value%3D%22%26lt%3Bb%26gt%3BLINHAS_FALA%26lt%3B%2Fb%26gt%3B%26amp%3Bnbsp%3B%7Bid_dialogo(PK)%2C%20id_linha_de_fala(PK)%2C%20texto_fala%7D%22%20style%3D%22text%3Balign%3Dcenter%3BverticalAlign%3Dmiddle%3BwhiteSpace%3Dwrap%3Brounded%3D0%3Bhtml%3D1%3B%22%20vertex%3D%221%22%20parent%3D%221%22%3E%3CmxGeometry%20x%3D%22-282%22%20y%3D%22-1280%22%20width%3D%22352%22%20height%3D%2230%22%20as%3D%22geometry%22%2F%3E%3C%2FmxCell%3E%3C%2Froot%3E%3C%2FmxGraphMo&lt;/span&gt;&lt;span style=&quot;background-color: initial;&quot;&gt;&amp;nbsp;{&lt;u&gt;id_gangue&lt;/u&gt;, nome, descricao, lider}&lt;/span&gt;&lt;/div&gt;" style="text;align=center;verticalAlign=middle;whiteSpace=wrap;rounded=0;html=1;" parent="1" vertex="1">
          <mxGeometry x="1242" y="-1230" width="239" height="30" as="geometry" />
        </mxCell>
        <mxCell id="xpjfr03tc90BIfNNLr1k-3" value="&lt;b&gt;CLASSE&lt;/b&gt; {&lt;u&gt;id_classe&lt;/u&gt;, nome}" style="text;align=center;verticalAlign=middle;whiteSpace=wrap;rounded=0;html=1;" parent="1" vertex="1">
          <mxGeometry x="1242" y="-1070" width="149" height="30" as="geometry" />
        </mxCell>
        <mxCell id="xpjfr03tc90BIfNNLr1k-4" value="&lt;b&gt;HABILIDADE&lt;/b&gt;&amp;nbsp;{&lt;u&gt;id_habilidade&lt;/u&gt;, nome, porcentagem_de_aumento}" style="text;align=center;verticalAlign=middle;whiteSpace=wrap;rounded=0;html=1;" parent="1" vertex="1">
          <mxGeometry x="1240" y="-910" width="329" height="30" as="geometry" />
        </mxCell>
        <mxCell id="xpjfr03tc90BIfNNLr1k-5" value="&lt;b&gt;CLASSE_POSSUI_HABILIDADE&lt;/b&gt;&amp;nbsp;{&lt;u&gt;classe, habilidade&lt;/u&gt;}" style="text;align=center;verticalAlign=middle;whiteSpace=wrap;rounded=0;html=1;" parent="1" vertex="1">
          <mxGeometry x="1242" y="-990" width="289" height="30" as="geometry" />
        </mxCell>
        <mxCell id="xpjfr03tc90BIfNNLr1k-6" value="&lt;div style=&quot;text-align: center;&quot;&gt;&lt;span style=&quot;background-color: initial; text-align: start;&quot;&gt;&lt;b&gt;GANGUE_CONFRONTA_GANGUE&lt;/b&gt;&lt;/span&gt;&lt;span style=&quot;background-color: initial; text-wrap: nowrap; color: rgba(0, 0, 0, 0); font-family: monospace; font-size: 0px; text-align: start;&quot;&gt;%3CmxGraphModel%3E%3Croot%3E%3CmxCell%20id%3D%220%22%2F%3E%3CmxCell%20id%3D%221%22%20parent%3D%220%22%2F%3E%3CmxCell%20id%3D%222%22%20value%3D%22%26lt%3Bb%26gt%3BLINHAS_FALA%26lt%3B%2Fb%26gt%3B%26amp%3Bnbsp%3B%7Bid_dialogo(PK)%2C%20id_linha_de_fala(PK)%2C%20texto_fala%7D%22%20style%3D%22text%3Balign%3Dcenter%3BverticalAlign%3Dmiddle%3BwhiteSpace%3Dwrap%3Brounded%3D0%3Bhtml%3D1%3B%22%20vertex%3D%221%22%20parent%3D%221%22%3E%3CmxGeometry%20x%3D%22-282%22%20y%3D%22-1280%22%20width%3D%22352%22%20height%3D%2230%22%20as%3D%22geometry%22%2F%3E%3C%2FmxCell%3E%3C%2Froot%3E%3C%2FmxGraphMo&lt;/span&gt;&lt;span style=&quot;background-color: initial;&quot;&gt;&amp;nbsp;{&lt;u&gt;gangue_vencedora, gangue_perdedora, data_confronto&lt;/u&gt;}&lt;/span&gt;&lt;/div&gt;" style="text;align=center;verticalAlign=middle;whiteSpace=wrap;rounded=0;html=1;" parent="1" vertex="1">
          <mxGeometry x="1240" y="-1150" width="479" height="30" as="geometry" />
        </mxCell>
        <mxCell id="ACeICVUY1d-nnHOsqDFH-2" value="&lt;div style=&quot;text-align: center;&quot;&gt;&lt;span style=&quot;background-color: initial; text-align: start;&quot;&gt;&lt;b&gt;INSTANCIA_ITEM&lt;/b&gt;&lt;/span&gt;&lt;span style=&quot;background-color: initial; text-wrap: nowrap; color: rgba(0, 0, 0, 0); font-family: monospace; font-size: 0px; text-align: start;&quot;&gt;%3CmxGraphModel%3E%3Croot%3E%3CmxCell%20id%3D%220%22%2F%3E%3CmxCell%20id%3D%221%22%20parent%3D%220%22%2F%3E%3CmxCell%20id%3D%222%22%20value%3D%22%26lt%3Bb%26gt%3BLINHAS_FALA%26lt%3B%2Fb%26gt%3B%26amp%3Bnbsp%3B%7Bid_dialogo(PK)%2C%20id_linha_de_fala(PK)%2C%20texto_fala%7D%22%20style%3D%22text%3Balign%3Dcenter%3BverticalAlign%3Dmiddle%3BwhiteSpace%3Dwrap%3Brounded%3D0%3Bhtml%3D1%3B%22%20vertex%3D%221%22%20parent%3D%221%22%3E%3CmxGeometry%20x%3D%22-282%22%20y%3D%22-1280%22%20width%3D%22352%22%20height%3D%2230%22%20as%3D%22geometry%22%2F%3E%3C%2FmxCell%3E%3C%2Froot%3E%3C%2FmxGraphMo&lt;/span&gt;&lt;span style=&quot;background-color: initial;&quot;&gt;&amp;nbsp;{&lt;u&gt;id_item, id_inst_item, inventario, personagem&lt;/u&gt;}&lt;/span&gt;&lt;/div&gt;" style="text;align=center;verticalAlign=middle;whiteSpace=wrap;rounded=0;html=1;" parent="1" vertex="1">
          <mxGeometry x="1239" y="-750" width="351" height="30" as="geometry" />
        </mxCell>
        <mxCell id="ACeICVUY1d-nnHOsqDFH-3" value="&lt;div style=&quot;text-align: center;&quot;&gt;&lt;span style=&quot;background-color: initial; text-align: start;&quot;&gt;&lt;b&gt;INVENTARIO&lt;/b&gt;&lt;/span&gt;&lt;span style=&quot;background-color: initial; text-wrap: nowrap; color: rgba(0, 0, 0, 0); font-family: monospace; font-size: 0px; text-align: start;&quot;&gt;%3CmxGraphModel%3E%3Croot%3E%3CmxCell%20id%3D%220%22%2F%3E%3CmxCell%20id%3D%221%22%20parent%3D%220%22%2F%3E%3CmxCell%20id%3D%222%22%20value%3D%22%26lt%3Bb%26gt%3BLINHAS_FALA%26lt%3B%2Fb%26gt%3B%26amp%3Bnbsp%3B%7Bid_dialogo(PK)%2C%20id_linha_de_fala(PK)%2C%20texto_fala%7D%22%20style%3D%22text%3Balign%3Dcenter%3BverticalAlign%3Dmiddle%3BwhiteSpace%3Dwrap%3Brounded%3D0%3Bhtml%3D1%3B%22%20vertex%3D%221%22%20parent%3D%221%22%3E%3CmxGeometry%20x%3D%22-282%22%20y%3D%22-1280%22%20width%3D%22352%22%20height%3D%2230%22%20as%3D%22geometry%22%2F%3E%3C%2FmxCell%3E%3C%2Froot%3E%3C%2FmxGraphMo&lt;/span&gt;&lt;span style=&quot;background-color: initial;&quot;&gt;&amp;nbsp;{&lt;u&gt;id_inventario, id_personagem&lt;/u&gt;, total_itens, capacidade}&lt;/span&gt;&lt;/div&gt;" style="text;align=center;verticalAlign=middle;whiteSpace=wrap;rounded=0;html=1;" parent="1" vertex="1">
          <mxGeometry x="1240" y="-830" width="360" height="30" as="geometry" />
        </mxCell>
        <mxCell id="ACeICVUY1d-nnHOsqDFH-4" value="&lt;div style=&quot;text-align: center;&quot;&gt;&lt;span style=&quot;background-color: initial; text-align: start;&quot;&gt;&lt;b&gt;ITEM_CONSUMIVEL&lt;/b&gt;&lt;/span&gt;&lt;span style=&quot;background-color: initial; text-wrap: nowrap; color: rgba(0, 0, 0, 0); font-family: monospace; font-size: 0px; text-align: start;&quot;&gt;%3CmxGraphModel%3E%3Croot%3E%3CmxCell%20id%3D%220%22%2F%3E%3CmxCell%20id%3D%221%22%20parent%3D%220%22%2F%3E%3CmxCell%20id%3D%222%22%20value%3D%22%26lt%3Bb%26gt%3BLINHAS_FALA%26lt%3B%2Fb%26gt%3B%26amp%3Bnbsp%3B%7Bid_dialogo(PK)%2C%20id_linha_de_fala(PK)%2C%20texto_fala%7D%22%20style%3D%22text%3Balign%3Dcenter%3BverticalAlign%3Dmiddle%3BwhiteSpace%3Dwrap%3Brounded%3D0%3Bhtml%3D1%3B%22%20vertex%3D%221%22%20parent%3D%221%22%3E%3CmxGeometry%20x%3D%22-282%22%20y%3D%22-1280%22%20width%3D%22352%22%20height%3D%2230%22%20as%3D%22geometry%22%2F%3E%3C%2FmxCell%3E%3C%2Froot%3E%3C%2FmxGraphMo_con&lt;/span&gt;&lt;span style=&quot;background-color: initial;&quot;&gt;&amp;nbsp;{&lt;/span&gt;&lt;u style=&quot;background-color: initial;&quot;&gt;id_item&lt;/u&gt;&lt;span style=&quot;background-color: initial;&quot;&gt;, nome, descricao, peso, preco, durabilidade_maxima,&lt;/span&gt;&lt;span style=&quot;background-color: initial;&quot;&gt;&amp;nbsp;&lt;/span&gt;&lt;span style=&quot;background-color: initial;&quot;&gt;&amp;nbsp;qtd_reparacao_stamina, qtd_reparacao_vida}&lt;/span&gt;&lt;/div&gt;" style="text;align=center;verticalAlign=middle;whiteSpace=wrap;rounded=0;html=1;" parent="1" vertex="1">
          <mxGeometry x="1242" y="-510" width="658" height="30" as="geometry" />
        </mxCell>
        <mxCell id="ACeICVUY1d-nnHOsqDFH-6" value="&lt;div style=&quot;text-align: center;&quot;&gt;&lt;span style=&quot;background-color: initial; text-align: start;&quot;&gt;&lt;b&gt;ITEM_EQUIPAVEL&lt;/b&gt;&lt;/span&gt;&lt;span style=&quot;background-color: initial; text-wrap: nowrap; color: rgba(0, 0, 0, 0); font-family: monospace; font-size: 0px; text-align: start;&quot;&gt;%3CmxGraphModel%3E%3Croot%3E%3CmxCell%20id%3D%220%22%2F%3E%3CmxCell%20id%3D%221%22%20parent%3D%220%22%2F%3E%3CmxCell%20id%3D%222%22%20value%3D%22%26lt%3Bb%26gt%3BLINHAS_FALA%26lt%3B%2Fb%26gt%3B%26amp%3Bnbsp%3B%7Bid_dialogo(PK)%2C%20id_linha_de_fala(PK)%2C%20texto_fala%7D%22%20style%3D%22text%3Balign%3Dcenter%3BverticalAlign%3Dmiddle%3BwhiteSpace%3Dwrap%3Brounded%3D0%3Bhtml%3D1%3B%22%20vertex%3D%221%22%20parent%3D%221%22%3E%3CmxGeometry%20x%3D%22-282%22%20y%3D%22-1280%22%20width%3D%22352%22%20height%3D%2230%22%20as%3D%22geometry%22%2F%3E%3C%2FmxCell%3E%3C%2Froot%3E%3C%2FmxGraphMo&lt;/span&gt;&lt;span style=&quot;background-color: initial;&quot;&gt;&amp;nbsp;{&lt;u&gt;id_item&lt;/u&gt;, nome, descricao, peso, preco, durabilidade_maxima, arte_do_corpo}&lt;/span&gt;&lt;/div&gt;" style="text;align=center;verticalAlign=middle;whiteSpace=wrap;rounded=0;html=1;" parent="1" vertex="1">
          <mxGeometry x="1239" y="-590" width="501" height="30" as="geometry" />
        </mxCell>
        <mxCell id="ACeICVUY1d-nnHOsqDFH-7" value="&lt;div style=&quot;text-align: center;&quot;&gt;&lt;span style=&quot;background-color: initial; text-align: start;&quot;&gt;&lt;b&gt;ITEM_TIPO&lt;/b&gt;&lt;/span&gt;&lt;span style=&quot;background-color: initial; text-wrap: nowrap; color: rgba(0, 0, 0, 0); font-family: monospace; font-size: 0px; text-align: start;&quot;&gt;%3CmxGraphModel%3E%3Croot%3E%3CmxCell%20id%3D%220%22%2F%3E%3CmxCell%20id%3D%221%22%20parent%3D%220%22%2F%3E%3CmxCell%20id%3D%222%22%20value%3D%22%26lt%3Bb%26gt%3BLINHAS_FALA%26lt%3B%2Fb%26gt%3B%26amp%3Bnbsp%3B%7Bid_dialogo(PK)%2C%20id_linha_de_fala(PK)%2C%20texto_fala%7D%22%20style%3D%22text%3Balign%3Dcenter%3BverticalAlign%3Dmiddle%3BwhiteSpace%3Dwrap%3Brounded%3D0%3Bhtml%3D1%3B%22%20vertex%3D%221%22%20parent%3D%221%22%3E%3CmxGeometry%20x%3D%22-282%22%20y%3D%22-1280%22%20width%3D%22352%22%20height%3D%2230%22%20as%3D%22geometry%22%2F%3E%3C%2FmxCell%3E%3C%2Froot%3E%3C%2FmxGraphMo&lt;/span&gt;&lt;span style=&quot;background-color: initial;&quot;&gt;&amp;nbsp;{&lt;u&gt;id_item&lt;/u&gt;, tipo}&lt;/span&gt;&lt;/div&gt;" style="text;align=center;verticalAlign=middle;whiteSpace=wrap;rounded=0;html=1;" parent="1" vertex="1">
          <mxGeometry x="1242" y="-670" width="150" height="30" as="geometry" />
        </mxCell>
        <mxCell id="ACeICVUY1d-nnHOsqDFH-8" value="&lt;b&gt;ARMA_MELEE&lt;/b&gt;&amp;nbsp;{&lt;u&gt;id_item&lt;/u&gt;, nome, descricao, peso, preco, durabilidade_maxima,&amp;nbsp;&amp;nbsp;dano_por_ataque, nivel_afiacao}" style="text;align=center;verticalAlign=middle;whiteSpace=wrap;rounded=0;html=1;" parent="1" vertex="1">
          <mxGeometry x="1239" y="-350" width="561" height="30" as="geometry" />
        </mxCell>
        <mxCell id="ACeICVUY1d-nnHOsqDFH-14" value="&lt;b&gt;PROJETIL&lt;/b&gt;&amp;nbsp;{&lt;u style=&quot;&quot;&gt;id_projetil, id_inst_item&lt;/u&gt;, pos_x, pox_y, pos_z, colidiu, velocidade&lt;u&gt;&lt;b&gt;}&lt;/b&gt;&lt;/u&gt;" style="text;align=center;verticalAlign=middle;whiteSpace=wrap;rounded=0;html=1;" parent="1" vertex="1">
          <mxGeometry x="1239" y="-270" width="401.5" height="30" as="geometry" />
        </mxCell>
        <mxCell id="ACeICVUY1d-nnHOsqDFH-15" value="&lt;b&gt;ARMA_FOGO&lt;/b&gt; {&lt;u&gt;id_item&lt;/u&gt;, nome, descricao, peso, preco, durabilidade_maxima, dano_por_ataque, velocidade_disparo, velocidade_reload}" style="text;align=center;verticalAlign=middle;whiteSpace=wrap;rounded=0;html=1;" parent="1" vertex="1">
          <mxGeometry x="1242" y="-430" width="678" height="30" as="geometry" />
        </mxCell>
      </root>
    </mxGraphModel>
  </diagram>
</mxfile>
